<svg width="512" height="512" viewBox="0 0 512 512" xmlns="http://www.w3.org/2000/svg">
  <defs>
    <linearGradient id="grad1" x1="0%" y1="0%" x2="100%" y2="100%">
      <stop offset="0%" style="stop-color:#3b82f6;stop-opacity:1" />
      <stop offset="100%" style="stop-color:#1d4ed8;stop-opacity:1" />
    </linearGradient>
  </defs>
  
  <!-- Background circle -->
  <circle cx="256" cy="256" r="240" fill="url(#grad1)" stroke="#ffffff" stroke-width="8"/>
  
  <!-- Calendar icon -->
  <rect x="180" y="160" width="152" height="120" rx="8" fill="#ffffff" opacity="0.9"/>
  <rect x="180" y="160" width="152" height="32" rx="8" fill="#ffffff"/>
  
  <!-- Calendar grid -->
  <line x1="200" y1="200" x2="312" y2="200" stroke="#3b82f6" stroke-width="2"/>
  <line x1="200" y1="220" x2="312" y2="220" stroke="#3b82f6" stroke-width="2"/>
  <line x1="200" y1="240" x2="312" y2="240" stroke="#3b82f6" stroke-width="2"/>
  <line x1="200" y1="260" x2="312" y2="260" stroke="#3b82f6" stroke-width="2"/>
  
  <!-- Calendar dots -->
  <circle cx="220" cy="210" r="3" fill="#3b82f6"/>
  <circle cx="250" cy="210" r="3" fill="#3b82f6"/>
  <circle cx="280" cy="210" r="3" fill="#3b82f6"/>
  <circle cx="310" cy="210" r="3" fill="#3b82f6"/>
  
  <circle cx="220" cy="230" r="3" fill="#3b82f6"/>
  <circle cx="250" cy="230" r="3" fill="#3b82f6"/>
  <circle cx="280" cy="230" r="3" fill="#3b82f6"/>
  <circle cx="310" cy="230" r="3" fill="#3b82f6"/>
  
  <circle cx="220" cy="250" r="3" fill="#3b82f6"/>
  <circle cx="250" cy="250" r="3" fill="#3b82f6"/>
  <circle cx="280" cy="250" r="3" fill="#3b82f6"/>
  <circle cx="310" cy="250" r="3" fill="#3b82f6"/>
  
  <!-- Clock icon -->
  <circle cx="256" cy="350" r="40" fill="#ffffff" opacity="0.9" stroke="#3b82f6" stroke-width="3"/>
  <line x1="256" y1="350" x2="256" y2="320" stroke="#3b82f6" stroke-width="4" stroke-linecap="round"/>
  <line x1="256" y1="350" x2="270" y2="350" stroke="#3b82f6" stroke-width="3" stroke-linecap="round"/>
  <circle cx="256" cy="350" r="4" fill="#3b82f6"/>
</svg>
