<svg width="1200" height="630" viewBox="0 0 1200 630" xmlns="http://www.w3.org/2000/svg">
  <defs>
    <linearGradient id="bgGrad" x1="0%" y1="0%" x2="100%" y2="100%">
      <stop offset="0%" style="stop-color:#f8fafc;stop-opacity:1" />
      <stop offset="100%" style="stop-color:#e2e8f0;stop-opacity:1" />
    </linearGradient>
    <linearGradient id="cardGrad" x1="0%" y1="0%" x2="100%" y2="100%">
      <stop offset="0%" style="stop-color:#ffffff;stop-opacity:0.9" />
      <stop offset="100%" style="stop-color:#f1f5f9;stop-opacity:0.8" />
    </linearGradient>
  </defs>
  
  <!-- Background -->
  <rect width="1200" height="630" fill="url(#bgGrad)"/>
  
  <!-- Main card -->
  <rect x="100" y="100" width="1000" height="430" rx="24" fill="url(#cardGrad)" stroke="#e2e8f0" stroke-width="2"/>
  
  <!-- Title -->
  <text x="600" y="200" font-family="Arial, sans-serif" font-size="64" font-weight="bold" text-anchor="middle" fill="#1e293b">Jadwal Kuliah</text>
  
  <!-- Subtitle -->
  <text x="600" y="260" font-family="Arial, sans-serif" font-size="28" text-anchor="middle" fill="#64748b">Aplikasi Web Modern &amp; Minimalis</text>
  
  <!-- Calendar icon -->
  <rect x="300" y="320" width="120" height="90" rx="8" fill="#3b82f6" opacity="0.1"/>
  <rect x="300" y="320" width="120" height="24" rx="8" fill="#3b82f6"/>
  <rect x="320" y="360" width="80" height="40" rx="4" fill="#ffffff" opacity="0.9"/>
  
  <!-- Calendar grid -->
  <line x1="330" y1="370" x2="390" y2="370" stroke="#3b82f6" stroke-width="2"/>
  <line x1="330" y1="380" x2="390" y2="380" stroke="#3b82f6" stroke-width="2"/>
  <line x1="330" y1="390" x2="390" y2="390" stroke="#3b82f6" stroke-width="2"/>
  
  <!-- Clock icon -->
  <circle cx="780" cy="365" r="35" fill="#3b82f6" opacity="0.1" stroke="#3b82f6" stroke-width="3"/>
  <line x1="780" y1="365" x2="780" y2="340" stroke="#3b82f6" stroke-width="4" stroke-linecap="round"/>
  <line x1="780" y1="365" x2="795" y2="365" stroke="#3b82f6" stroke-width="3" stroke-linecap="round"/>
  <circle cx="780" cy="365" r="3" fill="#3b82f6"/>
  
  <!-- Features text -->
  <text x="600" y="450" font-family="Arial, sans-serif" font-size="20" text-anchor="middle" fill="#64748b">📅 Jadwal Real-time • 📊 Statistik • 🔔 Notifikasi • 📱 Responsif</text>
</svg>
